<mxfile host="app.diagrams.net" agent="Mozilla/5.0 (Windows NT 10.0; Win64; x64) AppleWebKit/537.36 (KHTML, like Gecko) Chrome/131.0.0.0 Safari/537.36" version="26.0.3">
  <diagram id="C5RBs43oDa-KdzZeNtuy" name="Page-1">
    <mxGraphModel dx="1290" dy="530" grid="1" gridSize="10" guides="1" tooltips="1" connect="1" arrows="1" fold="1" page="1" pageScale="1" pageWidth="827" pageHeight="1169" math="0" shadow="0">
      <root>
        <mxCell id="WIyWlLk6GJQsqaUBKTNV-0" />
        <mxCell id="WIyWlLk6GJQsqaUBKTNV-1" parent="WIyWlLk6GJQsqaUBKTNV-0" />
        <mxCell id="v5XVIQ5Zl064v_nTVc3P-2" style="edgeStyle=orthogonalEdgeStyle;rounded=0;orthogonalLoop=1;jettySize=auto;html=1;exitX=0.5;exitY=1;exitDx=0;exitDy=0;exitPerimeter=0;entryX=0.5;entryY=0;entryDx=0;entryDy=0;" edge="1" parent="WIyWlLk6GJQsqaUBKTNV-1" source="v5XVIQ5Zl064v_nTVc3P-0" target="v5XVIQ5Zl064v_nTVc3P-1">
          <mxGeometry relative="1" as="geometry" />
        </mxCell>
        <mxCell id="v5XVIQ5Zl064v_nTVc3P-0" value="START" style="strokeWidth=2;html=1;shape=mxgraph.flowchart.start_1;whiteSpace=wrap;" vertex="1" parent="WIyWlLk6GJQsqaUBKTNV-1">
          <mxGeometry x="364" y="40" width="100" height="60" as="geometry" />
        </mxCell>
        <mxCell id="v5XVIQ5Zl064v_nTVc3P-4" style="edgeStyle=orthogonalEdgeStyle;rounded=0;orthogonalLoop=1;jettySize=auto;html=1;exitX=0.5;exitY=1;exitDx=0;exitDy=0;" edge="1" parent="WIyWlLk6GJQsqaUBKTNV-1" source="v5XVIQ5Zl064v_nTVc3P-1" target="v5XVIQ5Zl064v_nTVc3P-3">
          <mxGeometry relative="1" as="geometry" />
        </mxCell>
        <mxCell id="v5XVIQ5Zl064v_nTVc3P-1" value="READ DAYS , HOURS , MINUTES , SECONDS" style="shape=parallelogram;html=1;strokeWidth=2;perimeter=parallelogramPerimeter;whiteSpace=wrap;rounded=1;arcSize=12;size=0.23;" vertex="1" parent="WIyWlLk6GJQsqaUBKTNV-1">
          <mxGeometry x="181" y="140" width="466" height="60" as="geometry" />
        </mxCell>
        <mxCell id="v5XVIQ5Zl064v_nTVc3P-6" style="edgeStyle=orthogonalEdgeStyle;rounded=0;orthogonalLoop=1;jettySize=auto;html=1;exitX=0.5;exitY=1;exitDx=0;exitDy=0;" edge="1" parent="WIyWlLk6GJQsqaUBKTNV-1" source="v5XVIQ5Zl064v_nTVc3P-3" target="v5XVIQ5Zl064v_nTVc3P-5">
          <mxGeometry relative="1" as="geometry" />
        </mxCell>
        <mxCell id="v5XVIQ5Zl064v_nTVc3P-3" value="S1 = DAYS * 24 * 3600&lt;div&gt;S2 = HOURS * 3600&lt;/div&gt;&lt;div&gt;S3 = MINUTES * 60&lt;/div&gt;&lt;div&gt;S = SECONDS + S1 + S2 + S3&amp;nbsp;&lt;/div&gt;" style="rounded=1;whiteSpace=wrap;html=1;absoluteArcSize=1;arcSize=14;strokeWidth=2;" vertex="1" parent="WIyWlLk6GJQsqaUBKTNV-1">
          <mxGeometry x="246" y="260" width="336" height="100" as="geometry" />
        </mxCell>
        <mxCell id="v5XVIQ5Zl064v_nTVc3P-5" value="PRINT &quot;NUMBER OF SECONDS IS &quot; + S" style="shape=parallelogram;html=1;strokeWidth=2;perimeter=parallelogramPerimeter;whiteSpace=wrap;rounded=1;arcSize=12;size=0.23;" vertex="1" parent="WIyWlLk6GJQsqaUBKTNV-1">
          <mxGeometry x="217" y="420" width="393" height="60" as="geometry" />
        </mxCell>
        <mxCell id="v5XVIQ5Zl064v_nTVc3P-7" value="END" style="strokeWidth=2;html=1;shape=mxgraph.flowchart.terminator;whiteSpace=wrap;" vertex="1" parent="WIyWlLk6GJQsqaUBKTNV-1">
          <mxGeometry x="364" y="525" width="100" height="60" as="geometry" />
        </mxCell>
        <mxCell id="v5XVIQ5Zl064v_nTVc3P-8" style="edgeStyle=orthogonalEdgeStyle;rounded=0;orthogonalLoop=1;jettySize=auto;html=1;exitX=0.5;exitY=1;exitDx=0;exitDy=0;entryX=0.5;entryY=0;entryDx=0;entryDy=0;entryPerimeter=0;" edge="1" parent="WIyWlLk6GJQsqaUBKTNV-1" source="v5XVIQ5Zl064v_nTVc3P-5" target="v5XVIQ5Zl064v_nTVc3P-7">
          <mxGeometry relative="1" as="geometry" />
        </mxCell>
      </root>
    </mxGraphModel>
  </diagram>
</mxfile>
